<svg width="32" height="36" viewBox="0 0 32 36" fill="none" xmlns="http://www.w3.org/2000/svg">
<path d="M15.75 18C10.7828 18 6.75 13.9672 6.75 9C6.75 4.03276 10.7828 0 15.75 0C20.7172 0 24.75 4.03276 24.75 9C24.75 13.9672 20.7172 18 15.75 18V18M14.7023 25.2563L13.3945 23.0766C12.9445 22.3242 13.4859 21.375 14.3578 21.375H15.75H17.1352C18.007 21.375 18.5484 22.3313 18.0984 23.0766L16.7906 25.2563L19.1391 33.968L21.6703 23.6391C21.8109 23.0695 22.3594 22.6969 22.9289 22.8445C27.8578 24.082 31.5 28.5398 31.5 33.8414C31.5 35.0367 30.5297 36 29.3414 36H20.0742C19.9266 36 19.793 35.9719 19.6664 35.9227L19.6875 36H11.8125L11.8336 35.9227C11.707 35.9719 11.5664 36 11.4258 36H2.15859C0.970312 36 0 35.0297 0 33.8414C0 28.5328 3.64922 24.075 8.57109 22.8445C9.14062 22.7039 9.68906 23.0766 9.82969 23.6391L12.3609 33.968L14.7094 25.2563H14.7023" fill="#000000"/>
</svg>
