<svg width="45" height="36" viewBox="0 0 45 36" fill="none" xmlns="http://www.w3.org/2000/svg">
<path d="M10.125 0C13.2295 0 15.75 2.52048 15.75 5.625C15.75 8.72952 13.2295 11.25 10.125 11.25C7.02048 11.25 4.5 8.72952 4.5 5.625C4.5 2.52048 7.02048 0 10.125 0V0M36 0C39.1045 0 41.625 2.52048 41.625 5.625C41.625 8.72952 39.1045 11.25 36 11.25C32.8955 11.25 30.375 8.72952 30.375 5.625C30.375 2.52048 32.8955 0 36 0V0M0 21.0023C0 16.8609 3.36094 13.5 7.50234 13.5H10.5047C11.6227 13.5 12.6844 13.7461 13.6406 14.182C13.5492 14.6883 13.507 15.2156 13.507 15.75C13.507 18.4359 14.6883 20.8477 16.5516 22.5C16.5375 22.5 16.5234 22.5 16.5023 22.5H1.49766C0.675 22.5 0 21.825 0 21.0023V21.0023M28.4977 22.5C28.4836 22.5 28.4695 22.5 28.4484 22.5C30.3187 20.8477 31.493 18.4359 31.493 15.75C31.493 15.2156 31.4438 14.6953 31.3594 14.182C32.3156 13.7391 33.3773 13.5 34.4953 13.5H37.4977C41.6391 13.5 45 16.8609 45 21.0023C45 21.832 44.325 22.5 43.5023 22.5H28.4977V22.5M15.75 15.75C15.75 12.0246 18.7746 9 22.5 9C26.2254 9 29.25 12.0246 29.25 15.75C29.25 19.4754 26.2254 22.5 22.5 22.5C18.7746 22.5 15.75 19.4754 15.75 15.75V15.75M9 34.1227C9 28.9477 13.1977 24.75 18.3727 24.75H26.6273C31.8023 24.75 36 28.9477 36 34.1227C36 35.1563 35.1633 36 34.1227 36H10.8773C9.84375 36 9 35.1633 9 34.1227V34.1227" fill="#030303"/>
</svg>
